<?xml version="1.0"?>
<svg xmlns="http://www.w3.org/2000/svg" viewBox="0 0 512 512" width="512" height="512"><g id="outline"><path d="M425.7,86.3A240,240,0,1,0,86.287,425.705,240,240,0,1,0,425.7,86.3ZM97.6,97.608A224,224,0,0,1,479.992,256a225.718,225.718,0,0,1-5.781,50.868L398.448,203.277a8,8,0,0,0-12.915,0L338.9,267.035l-36.678-49.778A80.032,80.032,0,0,0,329.255,184H431.992a8,8,0,0,0,8-8,32.036,32.036,0,0,0-32-32h-.8a39.988,39.988,0,0,0-73.76-12.1A80.015,80.015,0,0,0,255.992,72a80.537,80.537,0,0,0-61.123,28.443A39.992,39.992,0,0,0,120.8,112h-.8a32.036,32.036,0,0,0-32,32,8,8,0,0,0,8,8h80a79.937,79.937,0,0,0,33.763,65.268l-36.673,49.77-46.633-63.761a8,8,0,0,0-12.914,0L37.772,306.863A225.731,225.731,0,0,1,31.992,256,222.535,222.535,0,0,1,97.6,97.608ZM385.741,404.992l16.514,20.68a222.154,222.154,0,0,1-80.077,44.43l20.064-25.108A8,8,0,0,0,335.992,432h-7.355l21.6-27a8,8,0,0,0-6.247-13h-9.87l33.87-56.451L401.863,392h-9.871a8,8,0,0,0-6.251,12.992ZM319.359,448l-7.229,9.046L305.514,448Zm-6.227-52.116A8,8,0,0,0,319.992,408h7.355l-15.355,19.193L296.637,408h7.355a8,8,0,0,0,6.86-12.116l-48-80a8,8,0,0,0-13.72,0l-48,80A8,8,0,0,0,207.992,408h7.355l-15.355,19.193L184.637,408h7.355a8,8,0,0,0,6.86-12.116l-45.258-75.43,32.52-44.133,44.048-18.838,20.173,20.174a8,8,0,0,0,11.314,0l20.173-20.174,44.048,18.838,32.52,44.133Zm-185.928.653A8,8,0,0,0,119.992,392h-9.87l33.87-56.451L177.863,392h-9.871a8,8,0,0,0-6.247,13l21.6,27h-7.355a8,8,0,0,0-6.247,13l20.091,25.114A222.164,222.164,0,0,1,109.7,425.644L126.235,405A8,8,0,0,0,127.2,396.537Zm72.651,60.486L192.637,448h13.824ZM191.99,152h32a8,8,0,0,0,8-8,32.045,32.045,0,0,0-26.339-31.488A64.506,64.506,0,0,1,255.992,88a63.739,63.739,0,0,1,63.619,57.121A32.052,32.052,0,0,0,295.992,176a8,8,0,0,0,8,8h7.377a63.994,63.994,0,0,1-18.636,20.376l-30.3-41.121a8,8,0,0,0-12.881,0l-30.309,41.133A63.946,63.946,0,0,1,191.99,152Zm0-24h8a16.01,16.01,0,0,1,13.853,8H106.14a16.008,16.008,0,0,1,13.852-8h8a8,8,0,0,0,8-8,24,24,0,1,1,48,0A8,8,0,0,0,191.992,128ZM314.14,168a16.008,16.008,0,0,1,13.852-8h8a8,8,0,0,0,8-8,24,24,0,1,1,48,0,8,8,0,0,0,8,8h8a16.01,16.01,0,0,1,13.853,8Zm-58.148,13.486,51.157,69.427-24.011-10.268a8,8,0,0,0-8.8,1.7l-18.343,18.344-18.343-18.344a8,8,0,0,0-8.8-1.7l-24.012,10.268Zm178.036,97.549-14.883-6.387a8,8,0,0,0-8.812,1.695L391.99,292.687l-18.343-18.344a8,8,0,0,0-8.816-1.693l-14.9,6.4,42.056-57.5Zm-271.983.018-14.9-6.4a8,8,0,0,0-8.816,1.693L119.99,292.687l-18.343-18.344a8,8,0,0,0-8.812-1.695l-14.883,6.387,42.038-57.483Zm-118.8,47.42L59.4,304.409l34.77-14.921,20.168,20.169a8,8,0,0,0,11.314,0l20.166-20.166,8.143,3.5L89.132,395.884A8,8,0,0,0,95.992,408h7.34l-5.389,6.726c-.114-.113-.23-.221-.343-.334A223.044,223.044,0,0,1,43.248,326.473ZM206.807,474.612l21.88-29.886A8,8,0,0,0,222.232,432h-5.595l21.6-27a8,8,0,0,0-6.247-13h-9.87l33.87-56.451L289.863,392h-9.871a8,8,0,0,0-6.247,13l21.6,27h-5.595a8,8,0,0,0-6.457,12.723l21.864,29.893a227.19,227.19,0,0,1-98.352,0Zm207.577-60.22c-.122.122-.249.24-.372.363L408.618,408h7.374a8,8,0,0,0,6.86-12.116L358.027,292.99l8.141-3.5,20.165,20.166a8,8,0,0,0,11.314,0l20.168-20.169,34.77,14.921,16.15,22.069A223.05,223.05,0,0,1,414.384,414.392Z"/></g></svg>
